<svg xmlns="http://www.w3.org/2000/svg" viewBox="534.95 101.49 236.43 236.43">
  <g transform="matrix(1.333333, 0, 0, -1.333333, 96.692345, 788.332581)" id="g10">
    <path id="path12" style="fill:#201f1f;fill-opacity:1;fill-rule:evenodd;stroke:none" d="M 417.358 515.135 C 466.325 515.135 506.02 475.44 506.02 426.473 C 506.02 425.709 506.01 424.948 505.991 424.189 C 442.926 429.124 431.588 458.62 465.289 500.015 C 428.929 463.29 411.202 462.321 386.229 509.502 C 397.2 458.91 382.751 447.703 331.007 446.661 C 340.145 485.9 375.337 515.135 417.358 515.135 Z M 396.047 483.982 C 410.471 456.731 423.933 453.399 444.934 474.61 C 425.466 450.698 433.054 429.319 469.493 426.473 C 428.456 426.893 420.354 415.914 433.754 380.651 C 412.926 417.747 412.022 421.936 378.715 394.139 C 405.578 418.924 389.976 436.265 359.886 443.002 C 389.805 443.599 402.387 454.747 396.047 483.982 Z M 505.991 424.187 C 505.076 388.036 482.52 357.269 450.796 344.34 C 423.908 404.06 435.323 424.904 505.991 424.187 Z M 450.689 344.296 C 440.398 340.118 429.148 337.811 417.358 337.811 C 391.67 337.811 368.537 348.74 352.345 366.197 C 409.224 413.598 413.54 406.474 450.689 344.296 Z M 352.316 366.228 C 337.66 382.044 328.696 403.21 328.696 426.473 C 328.696 433.412 329.496 440.164 331.003 446.644 C 382.847 435.015 398.163 408.834 352.316 366.228"/>
  </g>
</svg>